# xmcd
#
# Track frame offsets:
#	183
#	13125
#	26468
#	39773
#	52770
#	66045
#	80228
#	93900
#	106170
#	118103
#	130775
#	145193
#	160480
#	175538
#	191178
#	206543
#	218888
#	233515
#	248105
#	260080
#	274490
#
# Disc length: 3811 seconds
#
# Revision: 3
# Processed by: cddbd v1.5.1PL2 Copyright (c) Steve Scherf et al.
# Submitted via: EasyCDDAExtractor 6.0.0.1
#
DISCID=250ee115
DTITLE=Various Artist - Big Band Jazz (Volume I)
DYEAR=1983
DGENRE=Big Band
TTITLE0=Paul Whiteman and his Orchestra - Changes
TTITLE1=Paul Whiteman and his Orchestra - Lonely Melody
TTITLE2=Fletcher Henderson and his Orchestra - Copenhagen
TTITLE3=Fletcher Henderson and his Orchestra - Henderson Stomp
TTITLE4=Fletcher Henderson and his Orchestra - Hop Off
TTITLE5=Fletcher Henderson and his Orchestra - New King Porter Stomp
TTITLE6=Fletcher Henderson and his Orchestra - Down South Camp Meetin'
TTITLE7=McKinney's Cotton Pickers - Put It There
TTITLE8=McKinney's Cotton Pickers - Stop Kidding
TTITLE9=Luis Russell and his Orchestra - Ol' Man River
TTITLE10=Jesse Stone and his Blue Serenaders - Starvation Blues
TTITLE11=The Missourians - Market Street Stomp
TTITLE12=The Casa Loma Orchestra - Casa Loma Stomp
TTITLE13=Bennie Moten's Kansas City Orchestra - Toby
TTITLE14=Bennie Moten's Kansas City Orchestra - Moten Swing
TTITLE15=Earl Hines and his Orchestra - Madhouse
TTITLE16=Earl Hines and his Orchestra - Fat Babes
TTITLE17=Earl Hines and his Orchestra - Rock and Rye
TTITLE18=Earl Hines and his Orchestra - Grand Terrace Shuffle
TTITLE19=Chick Webb's Savoy Orchestra - Stomping at the Savoy
TTITLE20=Chick Webb and his Orchestra - Don't Be That Way
EXTD=
EXTT0=
EXTT1=
EXTT2=
EXTT3=
EXTT4=
EXTT5=
EXTT6=
EXTT7=
EXTT8=
EXTT9=
EXTT10=
EXTT11=
EXTT12=
EXTT13=
EXTT14=
EXTT15=
EXTT16=
EXTT17=
EXTT18=
EXTT19=
EXTT20=
PLAYORDER=
